<svg xmlns="http://www.w3.org/2000/svg" viewBox="0 0 256 256" width="1024" height="1024">
  <rect width="256" height="256" rx="56" fill="#0b0e11"></rect>
  <g fill="#4f9eea">
    <rect x="30" y="118" width="11" height="52" rx="5.5"></rect>
    <rect x="48" y="98" width="11" height="92" rx="5.5"></rect>
    <rect x="66" y="80" width="11" height="128" rx="5.5"></rect>
    <rect x="84" y="104" width="11" height="80" rx="5.5"></rect>
    <rect x="102" y="122" width="11" height="44" rx="5.5"></rect>
    <rect x="142" y="92" width="11" height="104" rx="5.5"></rect>
    <rect x="160" y="72" width="11" height="144" rx="5.5"></rect>
    <rect x="178" y="102" width="11" height="84" rx="5.5"></rect>
    <rect x="196" y="86" width="11" height="116" rx="5.5"></rect>
    <rect x="214" y="114" width="11" height="60" rx="5.5"></rect>
  </g>
  <rect x="124" y="26" width="7" height="190" rx="3" fill="#f0a030"></rect>
  <rect x="124" y="26" width="46" height="36" rx="5" fill="#f0a030"></rect>
</svg>